<?xml version="1.0" encoding="UTF-8" standalone="no"?>
<!DOCTYPE svg PUBLIC "-//W3C//DTD SVG 1.1//EN"
 "http://www.w3.org/Graphics/SVG/1.1/DTD/svg11.dtd">
<!-- Generated by graphviz version 11.0.0 (20240428.1522)
 -->
<!-- Pages: 1 -->
<svg width="2109pt" height="980pt"
 viewBox="0.00 0.00 2108.52 980.00" xmlns="http://www.w3.org/2000/svg" xmlns:xlink="http://www.w3.org/1999/xlink">
<g id="graph0" class="graph" transform="scale(1 1) rotate(0) translate(4 976)">
<polygon fill="white" stroke="none" points="-4,4 -4,-976 2104.52,-976 2104.52,4 -4,4"/>
<!-- consumer_income_spending_power -->
<g id="node1" class="node">
<title>consumer_income_spending_power</title>
<ellipse fill="none" stroke="black" cx="863.52" cy="-954" rx="145.87" ry="18"/>
<text text-anchor="middle" x="863.52" y="-948.58" font-family="Times New Roman,serif" font-size="14.00">consumer_income_spending_power</text>
</g>
<!-- purchases_of_new_clothes -->
<g id="node4" class="node">
<title>purchases_of_new_clothes</title>
<ellipse fill="none" stroke="black" cx="1366.52" cy="-882" rx="112.44" ry="18"/>
<text text-anchor="middle" x="1366.52" y="-876.58" font-family="Times New Roman,serif" font-size="14.00">purchases_of_new_clothes</text>
</g>
<!-- consumer_income_spending_power&#45;&gt;purchases_of_new_clothes -->
<g id="edge1" class="edge">
<title>consumer_income_spending_power&#45;&gt;purchases_of_new_clothes</title>
<path fill="none" stroke="black" d="M957.83,-939.87C1047.86,-927.35 1182.73,-908.58 1272.62,-896.07"/>
<polygon fill="black" stroke="black" points="1272.97,-899.55 1282.4,-894.71 1272.01,-892.62 1272.97,-899.55"/>
</g>
<!-- investments_in_marketing -->
<g id="node2" class="node">
<title>investments_in_marketing</title>
<ellipse fill="none" stroke="black" cx="600.52" cy="-162" rx="106.45" ry="18"/>
<text text-anchor="middle" x="600.52" y="-156.57" font-family="Times New Roman,serif" font-size="14.00">investments_in_marketing</text>
</g>
<!-- consumers_desire_to_buy -->
<g id="node3" class="node">
<title>consumers_desire_to_buy</title>
<ellipse fill="none" stroke="black" cx="664.52" cy="-18" rx="109.45" ry="18"/>
<text text-anchor="middle" x="664.52" y="-12.57" font-family="Times New Roman,serif" font-size="14.00">consumers_desire_to_buy</text>
</g>
<!-- investments_in_marketing&#45;&gt;consumers_desire_to_buy -->
<g id="edge4" class="edge">
<title>investments_in_marketing&#45;&gt;consumers_desire_to_buy</title>
<path fill="none" stroke="black" d="M601.69,-143.79C603.5,-125.24 608.08,-95.25 619.52,-72 624.37,-62.14 631.46,-52.58 638.59,-44.37"/>
<polygon fill="black" stroke="black" points="641.04,-46.88 645.21,-37.15 635.87,-42.15 641.04,-46.88"/>
</g>
<!-- consumers_desire_to_buy&#45;&gt;purchases_of_new_clothes -->
<g id="edge7" class="edge">
<title>consumers_desire_to_buy&#45;&gt;purchases_of_new_clothes</title>
<path fill="none" stroke="black" d="M774.22,-18.38C1109.91,-17.92 2100.52,-27.83 2100.52,-161 2100.52,-739 2100.52,-739 2100.52,-739 2100.52,-796.53 2059.04,-804.52 2006.52,-828 1917.25,-867.9 1649.82,-878.01 1490.31,-880.41"/>
<polygon fill="black" stroke="black" points="1490.47,-876.91 1480.53,-880.55 1490.57,-883.91 1490.47,-876.91"/>
</g>
<!-- owned_clothes -->
<g id="node6" class="node">
<title>owned_clothes</title>
<ellipse fill="none" stroke="black" cx="1461.52" cy="-810" rx="67.03" ry="18"/>
<text text-anchor="middle" x="1461.52" y="-804.58" font-family="Times New Roman,serif" font-size="14.00">owned_clothes</text>
</g>
<!-- purchases_of_new_clothes&#45;&gt;owned_clothes -->
<g id="edge10" class="edge">
<title>purchases_of_new_clothes&#45;&gt;owned_clothes</title>
<path fill="none" stroke="black" d="M1389.52,-864.05C1401.71,-855.07 1416.87,-843.9 1430.14,-834.12"/>
<polygon fill="black" stroke="black" points="1432.19,-836.95 1438.17,-828.2 1428.04,-831.32 1432.19,-836.95"/>
</g>
<!-- fashion_industry_profit -->
<g id="node8" class="node">
<title>fashion_industry_profit</title>
<ellipse fill="none" stroke="black" cx="474.52" cy="-234" rx="97.97" ry="18"/>
<text text-anchor="middle" x="474.52" y="-228.57" font-family="Times New Roman,serif" font-size="14.00">fashion_industry_profit</text>
</g>
<!-- purchases_of_new_clothes&#45;&gt;fashion_industry_profit -->
<g id="edge12" class="edge">
<title>purchases_of_new_clothes&#45;&gt;fashion_industry_profit</title>
<path fill="none" stroke="black" d="M1266.59,-873.46C981.15,-850.59 182.52,-776.8 182.52,-667 182.52,-667 182.52,-667 182.52,-593 182.52,-513.26 312.94,-342.1 371.52,-288 386.03,-274.6 404.57,-263.68 421.91,-255.31"/>
<polygon fill="black" stroke="black" points="422.95,-258.68 430.57,-251.31 420.02,-252.33 422.95,-258.68"/>
</g>
<!-- global_economic_trends -->
<g id="node11" class="node">
<title>global_economic_trends</title>
<ellipse fill="none" stroke="black" cx="136.52" cy="-810" rx="102.46" ry="18"/>
<text text-anchor="middle" x="136.52" y="-804.58" font-family="Times New Roman,serif" font-size="14.00">global_economic_trends</text>
</g>
<!-- purchases_of_new_clothes&#45;&gt;global_economic_trends -->
<g id="edge2" class="edge">
<title>purchases_of_new_clothes&#45;&gt;global_economic_trends</title>
<path fill="none" stroke="black" d="M1257.59,-877.18C1016.77,-868.51 445.24,-846.66 252.52,-828 242.4,-827.02 231.82,-825.78 221.33,-824.41"/>
<polygon fill="black" stroke="black" points="221.9,-820.95 211.52,-823.08 220.97,-827.89 221.9,-820.95"/>
</g>
<!-- clothing_production -->
<g id="node14" class="node">
<title>clothing_production</title>
<ellipse fill="none" stroke="black" cx="810.52" cy="-162" rx="85.99" ry="18"/>
<text text-anchor="middle" x="810.52" y="-156.57" font-family="Times New Roman,serif" font-size="14.00">clothing_production</text>
</g>
<!-- purchases_of_new_clothes&#45;&gt;clothing_production -->
<g id="edge11" class="edge">
<title>purchases_of_new_clothes&#45;&gt;clothing_production</title>
<path fill="none" stroke="black" d="M1479.12,-880.95C1676.1,-877.8 2062.52,-856.62 2062.52,-739 2062.52,-739 2062.52,-739 2062.52,-305 2062.52,-268.83 2218.64,-298.22 1880.52,-216 1697.68,-171.54 1135.45,-164.25 907.77,-163.15"/>
<polygon fill="black" stroke="black" points="908.05,-159.65 898.04,-163.11 908.02,-166.65 908.05,-159.65"/>
</g>
<!-- availability_of_second_hand_clothes -->
<g id="node5" class="node">
<title>availability_of_second_hand_clothes</title>
<ellipse fill="none" stroke="black" cx="1848.52" cy="-666" rx="148.37" ry="18"/>
<text text-anchor="middle" x="1848.52" y="-660.58" font-family="Times New Roman,serif" font-size="14.00">availability_of_second_hand_clothes</text>
</g>
<!-- availability_of_second_hand_clothes&#45;&gt;purchases_of_new_clothes -->
<g id="edge14" class="edge">
<title>availability_of_second_hand_clothes&#45;&gt;purchases_of_new_clothes</title>
<path fill="none" stroke="black" stroke-dasharray="5,2" d="M1820.29,-684.13C1766.76,-716.04 1646.13,-785.21 1537.52,-828 1503.76,-841.3 1465.23,-853.49 1433.31,-862.82"/>
<polygon fill="black" stroke="black" points="1432.4,-859.44 1423.76,-865.58 1434.34,-866.16 1432.4,-859.44"/>
</g>
<!-- clothes_thrown_away -->
<g id="node16" class="node">
<title>clothes_thrown_away</title>
<ellipse fill="none" stroke="black" cx="1414.52" cy="-738" rx="91.98" ry="18"/>
<text text-anchor="middle" x="1414.52" y="-732.58" font-family="Times New Roman,serif" font-size="14.00">clothes_thrown_away</text>
</g>
<!-- owned_clothes&#45;&gt;clothes_thrown_away -->
<g id="edge17" class="edge">
<title>owned_clothes&#45;&gt;clothes_thrown_away</title>
<path fill="none" stroke="black" d="M1444.54,-792.41C1438.4,-784.54 1431.69,-774.93 1426.08,-766.04"/>
<polygon fill="black" stroke="black" points="1429.24,-764.5 1421.08,-757.74 1423.25,-768.12 1429.24,-764.5"/>
</g>
<!-- clothes_washes -->
<g id="node18" class="node">
<title>clothes_washes</title>
<ellipse fill="none" stroke="black" cx="1507.52" cy="-378" rx="69.03" ry="18"/>
<text text-anchor="middle" x="1507.52" y="-372.57" font-family="Times New Roman,serif" font-size="14.00">clothes_washes</text>
</g>
<!-- owned_clothes&#45;&gt;clothes_washes -->
<g id="edge18" class="edge">
<title>owned_clothes&#45;&gt;clothes_washes</title>
<path fill="none" stroke="black" d="M1495.89,-794.13C1555.68,-767.15 1672.52,-709.06 1672.52,-667 1672.52,-667 1672.52,-667 1672.52,-593 1672.52,-508.12 1590.09,-436.32 1541.76,-401.51"/>
<polygon fill="black" stroke="black" points="1544.01,-398.82 1533.82,-395.92 1539.98,-404.54 1544.01,-398.82"/>
</g>
<!-- market_competitiveness -->
<g id="node7" class="node">
<title>market_competitiveness</title>
<ellipse fill="none" stroke="black" cx="728.52" cy="-90" rx="99.97" ry="18"/>
<text text-anchor="middle" x="728.52" y="-84.58" font-family="Times New Roman,serif" font-size="14.00">market_competitiveness</text>
</g>
<!-- market_competitiveness&#45;&gt;consumers_desire_to_buy -->
<g id="edge8" class="edge">
<title>market_competitiveness&#45;&gt;consumers_desire_to_buy</title>
<path fill="none" stroke="black" d="M713.03,-72.05C705.51,-63.84 696.33,-53.79 687.98,-44.66"/>
<polygon fill="black" stroke="black" points="690.67,-42.41 681.33,-37.39 685.5,-47.13 690.67,-42.41"/>
</g>
<!-- market_competitiveness&#45;&gt;fashion_industry_profit -->
<g id="edge25" class="edge">
<title>market_competitiveness&#45;&gt;fashion_industry_profit</title>
<path fill="none" stroke="black" d="M642.03,-99.33C581,-107.08 506.51,-120.99 485.52,-144 470.92,-160 468.94,-184.9 470.18,-204.29"/>
<polygon fill="black" stroke="black" points="466.67,-204.41 471.13,-214.02 473.64,-203.73 466.67,-204.41"/>
</g>
<!-- fashion_industry_profit&#45;&gt;investments_in_marketing -->
<g id="edge6" class="edge">
<title>fashion_industry_profit&#45;&gt;investments_in_marketing</title>
<path fill="none" stroke="black" d="M504.38,-216.41C521.13,-207.11 542.24,-195.38 560.41,-185.28"/>
<polygon fill="black" stroke="black" points="562.07,-188.36 569.11,-180.45 558.67,-182.24 562.07,-188.36"/>
</g>
<!-- fashion_industry_profit&#45;&gt;clothing_production -->
<g id="edge23" class="edge">
<title>fashion_industry_profit&#45;&gt;clothing_production</title>
<path fill="none" stroke="black" d="M537.72,-219.83C595.22,-207.85 680.01,-190.19 739.76,-177.74"/>
<polygon fill="black" stroke="black" points="740.43,-181.18 749.51,-175.71 739,-174.32 740.43,-181.18"/>
</g>
<!-- industry_investments_in_sustainability -->
<g id="node30" class="node">
<title>industry_investments_in_sustainability</title>
<ellipse fill="none" stroke="black" cx="704.52" cy="-450" rx="152.86" ry="18"/>
<text text-anchor="middle" x="704.52" y="-444.57" font-family="Times New Roman,serif" font-size="14.00">industry_investments_in_sustainability</text>
</g>
<!-- fashion_industry_profit&#45;&gt;industry_investments_in_sustainability -->
<g id="edge24" class="edge">
<title>fashion_industry_profit&#45;&gt;industry_investments_in_sustainability</title>
<path fill="none" stroke="black" d="M501.72,-251.75C515.46,-261.17 531.69,-273.87 543.52,-288 578.23,-329.46 561.08,-357.98 599.52,-396 612.8,-409.14 630.01,-419.66 646.63,-427.75"/>
<polygon fill="black" stroke="black" points="644.95,-430.83 655.49,-431.84 647.88,-424.47 644.95,-430.83"/>
</g>
<!-- production_costs -->
<g id="node9" class="node">
<title>production_costs</title>
<ellipse fill="none" stroke="black" cx="457.52" cy="-306" rx="76.51" ry="18"/>
<text text-anchor="middle" x="457.52" y="-300.57" font-family="Times New Roman,serif" font-size="14.00">production_costs</text>
</g>
<!-- production_costs&#45;&gt;fashion_industry_profit -->
<g id="edge27" class="edge">
<title>production_costs&#45;&gt;fashion_industry_profit</title>
<path fill="none" stroke="black" stroke-dasharray="5,2" d="M461.72,-287.7C463.51,-280.32 465.65,-271.52 467.66,-263.25"/>
<polygon fill="black" stroke="black" points="471.05,-264.12 470.01,-253.58 464.25,-262.47 471.05,-264.12"/>
</g>
<!-- production_intensity -->
<g id="node10" class="node">
<title>production_intensity</title>
<ellipse fill="none" stroke="black" cx="695.52" cy="-378" rx="86.99" ry="18"/>
<text text-anchor="middle" x="695.52" y="-372.57" font-family="Times New Roman,serif" font-size="14.00">production_intensity</text>
</g>
<!-- production_intensity&#45;&gt;fashion_industry_profit -->
<g id="edge26" class="edge">
<title>production_intensity&#45;&gt;fashion_industry_profit</title>
<path fill="none" stroke="black" d="M673.12,-360.3C659.14,-349.88 640.78,-336.16 624.52,-324 603.17,-308.02 599.09,-302.2 576.52,-288 558.44,-276.63 537.66,-265.51 519.59,-256.41"/>
<polygon fill="black" stroke="black" points="521.17,-253.29 510.66,-251.97 518.06,-259.56 521.17,-253.29"/>
</g>
<!-- production_intensity&#45;&gt;production_costs -->
<g id="edge33" class="edge">
<title>production_intensity&#45;&gt;production_costs</title>
<path fill="none" stroke="black" stroke-dasharray="5,2" d="M646.78,-362.67C608.62,-351.44 555.44,-335.8 515.16,-323.95"/>
<polygon fill="black" stroke="black" points="516.2,-320.61 505.62,-321.15 514.22,-327.33 516.2,-320.61"/>
</g>
<!-- clothes_quality -->
<g id="node15" class="node">
<title>clothes_quality</title>
<ellipse fill="none" stroke="black" cx="257.52" cy="-306" rx="66.53" ry="18"/>
<text text-anchor="middle" x="257.52" y="-300.57" font-family="Times New Roman,serif" font-size="14.00">clothes_quality</text>
</g>
<!-- production_intensity&#45;&gt;clothes_quality -->
<g id="edge31" class="edge">
<title>production_intensity&#45;&gt;clothes_quality</title>
<path fill="none" stroke="black" stroke-dasharray="5,2" d="M628.52,-366.29C546.24,-353.14 407.47,-330.96 324.98,-317.78"/>
<polygon fill="black" stroke="black" points="325.65,-314.34 315.22,-316.22 324.54,-321.26 325.65,-314.34"/>
</g>
<!-- work_exploitation -->
<g id="node21" class="node">
<title>work_exploitation</title>
<ellipse fill="none" stroke="black" cx="95.52" cy="-306" rx="77.51" ry="18"/>
<text text-anchor="middle" x="95.52" y="-300.57" font-family="Times New Roman,serif" font-size="14.00">work_exploitation</text>
</g>
<!-- production_intensity&#45;&gt;work_exploitation -->
<g id="edge48" class="edge">
<title>production_intensity&#45;&gt;work_exploitation</title>
<path fill="none" stroke="black" d="M614.66,-370.99C513.16,-362.91 333.89,-346.87 181.52,-324 175.25,-323.06 168.75,-321.98 162.25,-320.82"/>
<polygon fill="black" stroke="black" points="163.32,-317.46 152.85,-319.09 162.05,-324.34 163.32,-317.46"/>
</g>
<!-- landfills_exploitation -->
<g id="node22" class="node">
<title>landfills_exploitation</title>
<ellipse fill="none" stroke="black" cx="753.52" cy="-306" rx="86.99" ry="18"/>
<text text-anchor="middle" x="753.52" y="-300.57" font-family="Times New Roman,serif" font-size="14.00">landfills_exploitation</text>
</g>
<!-- production_intensity&#45;&gt;landfills_exploitation -->
<g id="edge49" class="edge">
<title>production_intensity&#45;&gt;landfills_exploitation</title>
<path fill="none" stroke="black" d="M709.56,-360.05C716.4,-351.8 724.77,-341.7 732.36,-332.54"/>
<polygon fill="black" stroke="black" points="734.96,-334.89 738.64,-324.95 729.57,-330.42 734.96,-334.89"/>
</g>
<!-- natural_resources_exploitation -->
<g id="node23" class="node">
<title>natural_resources_exploitation</title>
<ellipse fill="none" stroke="black" cx="1604.52" cy="-306" rx="123.92" ry="18"/>
<text text-anchor="middle" x="1604.52" y="-300.57" font-family="Times New Roman,serif" font-size="14.00">natural_resources_exploitation</text>
</g>
<!-- production_intensity&#45;&gt;natural_resources_exploitation -->
<g id="edge50" class="edge">
<title>production_intensity&#45;&gt;natural_resources_exploitation</title>
<path fill="none" stroke="black" d="M779.48,-372.89C921.98,-365.55 1220.2,-348.62 1471.52,-324 1482.38,-322.94 1493.72,-321.69 1505,-320.37"/>
<polygon fill="black" stroke="black" points="1505.23,-323.87 1514.74,-319.2 1504.4,-316.92 1505.23,-323.87"/>
</g>
<!-- chemical_pollution -->
<g id="node24" class="node">
<title>chemical_pollution</title>
<ellipse fill="none" stroke="black" cx="1187.52" cy="-306" rx="80.5" ry="18"/>
<text text-anchor="middle" x="1187.52" y="-300.57" font-family="Times New Roman,serif" font-size="14.00">chemical_pollution</text>
</g>
<!-- production_intensity&#45;&gt;chemical_pollution -->
<g id="edge51" class="edge">
<title>production_intensity&#45;&gt;chemical_pollution</title>
<path fill="none" stroke="black" d="M770.16,-368.42C851.01,-358.83 983.7,-342.24 1097.52,-324 1103.96,-322.97 1110.64,-321.83 1117.33,-320.65"/>
<polygon fill="black" stroke="black" points="1117.83,-324.11 1127.05,-318.9 1116.59,-317.23 1117.83,-324.11"/>
</g>
<!-- greenhouse_gases_emission -->
<g id="node25" class="node">
<title>greenhouse_gases_emission</title>
<ellipse fill="none" stroke="black" cx="973.52" cy="-306" rx="115.43" ry="18"/>
<text text-anchor="middle" x="973.52" y="-300.57" font-family="Times New Roman,serif" font-size="14.00">greenhouse_gases_emission</text>
</g>
<!-- production_intensity&#45;&gt;greenhouse_gases_emission -->
<g id="edge52" class="edge">
<title>production_intensity&#45;&gt;greenhouse_gases_emission</title>
<path fill="none" stroke="black" d="M749.12,-363.5C793.18,-352.41 855.93,-336.61 903.88,-324.54"/>
<polygon fill="black" stroke="black" points="904.49,-327.99 913.33,-322.16 902.78,-321.2 904.49,-327.99"/>
</g>
<!-- energy_consumption -->
<g id="node26" class="node">
<title>energy_consumption</title>
<ellipse fill="none" stroke="black" cx="1374.52" cy="-306" rx="88.49" ry="18"/>
<text text-anchor="middle" x="1374.52" y="-300.57" font-family="Times New Roman,serif" font-size="14.00">energy_consumption</text>
</g>
<!-- production_intensity&#45;&gt;energy_consumption -->
<g id="edge53" class="edge">
<title>production_intensity&#45;&gt;energy_consumption</title>
<path fill="none" stroke="black" d="M777.68,-371.67C890.61,-363.85 1100,-347.6 1277.52,-324 1284.72,-323.04 1292.21,-321.93 1299.68,-320.75"/>
<polygon fill="black" stroke="black" points="1300.18,-324.22 1309.48,-319.15 1299.05,-317.31 1300.18,-324.22"/>
</g>
<!-- global_economic_trends&#45;&gt;consumer_income_spending_power -->
<g id="edge3" class="edge">
<title>global_economic_trends&#45;&gt;consumer_income_spending_power</title>
<path fill="none" stroke="black" d="M203.32,-824.05C335.36,-849.84 629.68,-907.33 776.6,-936.02"/>
<polygon fill="black" stroke="black" points="775.8,-939.43 786.29,-937.92 777.15,-932.56 775.8,-939.43"/>
</g>
<!-- government_policies -->
<g id="node12" class="node">
<title>government_policies</title>
<ellipse fill="none" stroke="black" cx="335.52" cy="-594" rx="87.49" ry="18"/>
<text text-anchor="middle" x="335.52" y="-588.58" font-family="Times New Roman,serif" font-size="14.00">government_policies</text>
</g>
<!-- global_economic_trends&#45;&gt;government_policies -->
<g id="edge34" class="edge">
<title>global_economic_trends&#45;&gt;government_policies</title>
<path fill="none" stroke="black" d="M152.47,-791.85C187.49,-754.19 271.23,-664.13 312.18,-620.1"/>
<polygon fill="black" stroke="black" points="314.49,-622.75 318.74,-613.04 309.37,-617.98 314.49,-622.75"/>
</g>
<!-- government_policies&#45;&gt;production_costs -->
<g id="edge32" class="edge">
<title>government_policies&#45;&gt;production_costs</title>
<path fill="none" stroke="black" d="M337.55,-575.54C340.01,-557.3 344.94,-528.05 353.52,-504 376.44,-439.74 417.16,-370.49 440.26,-333.65"/>
<polygon fill="black" stroke="black" points="443.07,-335.75 445.47,-325.43 437.16,-332 443.07,-335.75"/>
</g>
<!-- enviroinmental_regulations -->
<g id="node13" class="node">
<title>enviroinmental_regulations</title>
<ellipse fill="none" stroke="black" cx="471.52" cy="-522" rx="108.95" ry="18"/>
<text text-anchor="middle" x="471.52" y="-516.58" font-family="Times New Roman,serif" font-size="14.00">enviroinmental_regulations</text>
</g>
<!-- government_policies&#45;&gt;enviroinmental_regulations -->
<g id="edge36" class="edge">
<title>government_policies&#45;&gt;enviroinmental_regulations</title>
<path fill="none" stroke="black" d="M367.06,-576.76C385.5,-567.27 409.03,-555.17 429.08,-544.84"/>
<polygon fill="black" stroke="black" points="430.57,-548.01 437.86,-540.33 427.36,-541.79 430.57,-548.01"/>
</g>
<!-- incentives_for_sustainability -->
<g id="node20" class="node">
<title>incentives_for_sustainability</title>
<ellipse fill="none" stroke="black" cx="713.52" cy="-522" rx="115.43" ry="18"/>
<text text-anchor="middle" x="713.52" y="-516.58" font-family="Times New Roman,serif" font-size="14.00">incentives_for_sustainability</text>
</g>
<!-- government_policies&#45;&gt;incentives_for_sustainability -->
<g id="edge35" class="edge">
<title>government_policies&#45;&gt;incentives_for_sustainability</title>
<path fill="none" stroke="black" d="M398.79,-581.28C462.23,-569.54 560.26,-551.38 630.04,-538.46"/>
<polygon fill="black" stroke="black" points="630.31,-541.97 639.5,-536.71 629.03,-535.09 630.31,-541.97"/>
</g>
<!-- government_policies&#45;&gt;work_exploitation -->
<g id="edge37" class="edge">
<title>government_policies&#45;&gt;work_exploitation</title>
<path fill="none" stroke="black" stroke-dasharray="5,2" d="M321.22,-575.97C280.71,-527.68 164.93,-389.71 116.85,-332.42"/>
<polygon fill="black" stroke="black" points="119.82,-330.51 110.71,-325.1 114.46,-335.01 119.82,-330.51"/>
</g>
<!-- enviroinmental_regulations&#45;&gt;production_intensity -->
<g id="edge39" class="edge">
<title>enviroinmental_regulations&#45;&gt;production_intensity</title>
<path fill="none" stroke="black" stroke-dasharray="5,2" d="M481.1,-503.83C493.04,-483.89 515.24,-451.29 542.52,-432 566.94,-414.74 597.48,-402.67 624.84,-394.46"/>
<polygon fill="black" stroke="black" points="625.44,-397.93 634.09,-391.81 623.52,-391.2 625.44,-397.93"/>
</g>
<!-- enviroinmental_regulations&#45;&gt;industry_investments_in_sustainability -->
<g id="edge38" class="edge">
<title>enviroinmental_regulations&#45;&gt;industry_investments_in_sustainability</title>
<path fill="none" stroke="black" d="M522.36,-505.72C556.85,-495.36 602.74,-481.58 639.83,-470.43"/>
<polygon fill="black" stroke="black" points="640.52,-473.88 649.09,-467.65 638.5,-467.18 640.52,-473.88"/>
</g>
<!-- clothing_production&#45;&gt;owned_clothes -->
<g id="edge19" class="edge">
<title>clothing_production&#45;&gt;owned_clothes</title>
<path fill="none" stroke="black" d="M896.37,-164.02C1173.21,-168.44 2024.52,-191.27 2024.52,-305 2024.52,-595 2024.52,-595 2024.52,-595 2024.52,-635.45 2033.9,-655.18 2005.52,-684 1940.36,-750.17 1667.84,-787.33 1534.98,-801.82"/>
<polygon fill="black" stroke="black" points="1534.8,-798.32 1525.23,-802.87 1535.55,-805.28 1534.8,-798.32"/>
</g>
<!-- clothing_production&#45;&gt;market_competitiveness -->
<g id="edge21" class="edge">
<title>clothing_production&#45;&gt;market_competitiveness</title>
<path fill="none" stroke="black" d="M790.67,-144.05C780.57,-135.43 768.12,-124.8 757.01,-115.32"/>
<polygon fill="black" stroke="black" points="759.5,-112.84 749.62,-109.01 754.95,-118.17 759.5,-112.84"/>
</g>
<!-- clothing_production&#45;&gt;production_intensity -->
<g id="edge22" class="edge">
<title>clothing_production&#45;&gt;production_intensity</title>
<path fill="none" stroke="black" d="M777.13,-178.88C740.04,-198.6 682.14,-236.09 657.52,-288 647.52,-309.07 659.54,-333.46 672.64,-351.37"/>
<polygon fill="black" stroke="black" points="669.61,-353.19 678.54,-358.9 675.13,-348.87 669.61,-353.19"/>
</g>
<!-- clothes_quality&#45;&gt;consumers_desire_to_buy -->
<g id="edge9" class="edge">
<title>clothes_quality&#45;&gt;consumers_desire_to_buy</title>
<path fill="none" stroke="black" stroke-dasharray="5,2" d="M277.15,-288.61C298.96,-270.52 335.36,-240.68 367.52,-216 410.68,-182.88 421.49,-174.54 466.52,-144 521.42,-106.77 586.77,-66.21 626.95,-41.7"/>
<polygon fill="black" stroke="black" points="628.59,-44.8 635.31,-36.61 624.95,-38.82 628.59,-44.8"/>
</g>
<!-- clothing_lifespan -->
<g id="node17" class="node">
<title>clothing_lifespan</title>
<ellipse fill="none" stroke="black" cx="73.52" cy="-234" rx="73.52" ry="18"/>
<text text-anchor="middle" x="73.52" y="-228.57" font-family="Times New Roman,serif" font-size="14.00">clothing_lifespan</text>
</g>
<!-- clothes_quality&#45;&gt;clothing_lifespan -->
<g id="edge30" class="edge">
<title>clothes_quality&#45;&gt;clothing_lifespan</title>
<path fill="none" stroke="black" d="M220.28,-290.83C192.2,-280.15 153.4,-265.39 122.75,-253.73"/>
<polygon fill="black" stroke="black" points="124.29,-250.57 113.7,-250.29 121.8,-257.11 124.29,-250.57"/>
</g>
<!-- clothes_thrown_away&#45;&gt;purchases_of_new_clothes -->
<g id="edge13" class="edge">
<title>clothes_thrown_away&#45;&gt;purchases_of_new_clothes</title>
<path fill="none" stroke="black" d="M1403.52,-756.06C1397.44,-766.16 1390.19,-779.41 1385.52,-792 1378.28,-811.5 1373.46,-834.47 1370.49,-852.2"/>
<polygon fill="black" stroke="black" points="1367.04,-851.6 1368.95,-862.02 1373.96,-852.68 1367.04,-851.6"/>
</g>
<!-- clothes_thrown_away&#45;&gt;availability_of_second_hand_clothes -->
<g id="edge16" class="edge">
<title>clothes_thrown_away&#45;&gt;availability_of_second_hand_clothes</title>
<path fill="none" stroke="black" d="M1483.77,-725.83C1555.88,-714.2 1669.45,-695.88 1750.7,-682.78"/>
<polygon fill="black" stroke="black" points="1751.13,-686.25 1760.45,-681.2 1750.02,-679.34 1751.13,-686.25"/>
</g>
<!-- clothes_thrown_away&#45;&gt;owned_clothes -->
<g id="edge20" class="edge">
<title>clothes_thrown_away&#45;&gt;owned_clothes</title>
<path fill="none" stroke="black" stroke-dasharray="5,2" d="M1431.9,-756.1C1437.93,-763.88 1444.46,-773.26 1449.95,-781.95"/>
<polygon fill="black" stroke="black" points="1446.88,-783.64 1455.04,-790.4 1452.88,-780.03 1446.88,-783.64"/>
</g>
<!-- textile_waste -->
<g id="node27" class="node">
<title>textile_waste</title>
<ellipse fill="none" stroke="black" cx="1275.52" cy="-666" rx="58.05" ry="18"/>
<text text-anchor="middle" x="1275.52" y="-660.58" font-family="Times New Roman,serif" font-size="14.00">textile_waste</text>
</g>
<!-- clothes_thrown_away&#45;&gt;textile_waste -->
<g id="edge29" class="edge">
<title>clothes_thrown_away&#45;&gt;textile_waste</title>
<path fill="none" stroke="black" d="M1382.28,-720.76C1362.15,-710.63 1336.11,-697.51 1314.79,-686.77"/>
<polygon fill="black" stroke="black" points="1316.6,-683.77 1306.09,-682.4 1313.45,-690.02 1316.6,-683.77"/>
</g>
<!-- clothing_lifespan&#45;&gt;clothes_thrown_away -->
<g id="edge28" class="edge">
<title>clothing_lifespan&#45;&gt;clothes_thrown_away</title>
<path fill="none" stroke="black" stroke-dasharray="5,2" d="M43.98,-250.84C30.52,-259.8 15.95,-272.35 8.52,-288 1.65,-302.45 3.21,-308.91 8.52,-324 62.93,-478.8 95.55,-533.28 239.52,-612 423.1,-712.38 1060.18,-732.16 1311.46,-736.05"/>
<polygon fill="black" stroke="black" points="1311.21,-739.54 1321.26,-736.19 1311.31,-732.55 1311.21,-739.54"/>
</g>
<!-- clothes_washes&#45;&gt;natural_resources_exploitation -->
<g id="edge47" class="edge">
<title>clothes_washes&#45;&gt;natural_resources_exploitation</title>
<path fill="none" stroke="black" d="M1530.02,-360.76C1542.38,-351.84 1557.96,-340.6 1571.66,-330.71"/>
<polygon fill="black" stroke="black" points="1573.5,-333.7 1579.56,-325.01 1569.41,-328.02 1573.5,-333.7"/>
</g>
<!-- clothes_washes&#45;&gt;chemical_pollution -->
<g id="edge46" class="edge">
<title>clothes_washes&#45;&gt;chemical_pollution</title>
<path fill="none" stroke="black" d="M1455.75,-365.68C1401.08,-353.72 1314.66,-334.81 1254.76,-321.71"/>
<polygon fill="black" stroke="black" points="1255.51,-318.29 1245,-319.57 1254.02,-325.13 1255.51,-318.29"/>
</g>
<!-- clothes_washes&#45;&gt;energy_consumption -->
<g id="edge45" class="edge">
<title>clothes_washes&#45;&gt;energy_consumption</title>
<path fill="none" stroke="black" d="M1478,-361.46C1459.62,-351.79 1435.72,-339.21 1415.52,-328.58"/>
<polygon fill="black" stroke="black" points="1417.16,-325.49 1406.68,-323.93 1413.9,-331.68 1417.16,-325.49"/>
</g>
<!-- consumers_awareness -->
<g id="node19" class="node">
<title>consumers_awareness</title>
<ellipse fill="none" stroke="black" cx="940.52" cy="-522" rx="93.98" ry="18"/>
<text text-anchor="middle" x="940.52" y="-516.58" font-family="Times New Roman,serif" font-size="14.00">consumers_awareness</text>
</g>
<!-- consumers_awareness&#45;&gt;purchases_of_new_clothes -->
<g id="edge15" class="edge">
<title>consumers_awareness&#45;&gt;purchases_of_new_clothes</title>
<path fill="none" stroke="black" stroke-dasharray="5,2" d="M946.39,-540.26C954.86,-566.75 969.52,-619.21 969.52,-665 969.52,-739 969.52,-739 969.52,-739 969.52,-803.62 1158.35,-846.65 1275.55,-867.13"/>
<polygon fill="black" stroke="black" points="1274.72,-870.54 1285.17,-868.79 1275.9,-863.64 1274.72,-870.54"/>
</g>
<!-- consumers_awareness&#45;&gt;industry_investments_in_sustainability -->
<g id="edge41" class="edge">
<title>consumers_awareness&#45;&gt;industry_investments_in_sustainability</title>
<path fill="none" stroke="black" d="M891.05,-506.33C855.83,-495.88 808.17,-481.74 769.83,-470.37"/>
<polygon fill="black" stroke="black" points="771.32,-467.16 760.74,-467.68 769.33,-473.87 771.32,-467.16"/>
</g>
<!-- incentives_for_sustainability&#45;&gt;industry_investments_in_sustainability -->
<g id="edge40" class="edge">
<title>incentives_for_sustainability&#45;&gt;industry_investments_in_sustainability</title>
<path fill="none" stroke="black" d="M711.29,-503.7C710.35,-496.32 709.21,-487.52 708.15,-479.25"/>
<polygon fill="black" stroke="black" points="711.66,-479.08 706.91,-469.61 704.71,-479.97 711.66,-479.08"/>
</g>
<!-- fashion_industry_footprint -->
<g id="node28" class="node">
<title>fashion_industry_footprint</title>
<ellipse fill="none" stroke="black" cx="1137.52" cy="-594" rx="109.95" ry="18"/>
<text text-anchor="middle" x="1137.52" y="-588.58" font-family="Times New Roman,serif" font-size="14.00">fashion_industry_footprint</text>
</g>
<!-- work_exploitation&#45;&gt;fashion_industry_footprint -->
<g id="edge61" class="edge">
<title>work_exploitation&#45;&gt;fashion_industry_footprint</title>
<path fill="none" stroke="black" d="M120.55,-323.52C135.23,-333.54 153.9,-346.9 169.52,-360 257.17,-433.52 249.1,-493.25 353.52,-540 412.56,-566.43 814.45,-582.79 1018.77,-589.49"/>
<polygon fill="black" stroke="black" points="1018.52,-592.99 1028.63,-589.81 1018.75,-585.99 1018.52,-592.99"/>
</g>
<!-- landfills_exploitation&#45;&gt;fashion_industry_footprint -->
<g id="edge62" class="edge">
<title>landfills_exploitation&#45;&gt;fashion_industry_footprint</title>
<path fill="none" stroke="black" d="M780.93,-323.54C833.64,-355.79 951.99,-430.37 1043.52,-504 1068.42,-524.03 1094.67,-549.28 1113.08,-567.76"/>
<polygon fill="black" stroke="black" points="1110.37,-570 1119.89,-574.65 1115.35,-565.08 1110.37,-570"/>
</g>
<!-- natural_resources_exploitation&#45;&gt;fashion_industry_footprint -->
<g id="edge63" class="edge">
<title>natural_resources_exploitation&#45;&gt;fashion_industry_footprint</title>
<path fill="none" stroke="black" d="M1605.14,-324.27C1604.94,-343.7 1601.82,-375.26 1585.52,-396 1497.12,-508.47 1331.22,-558.21 1227.99,-579.09"/>
<polygon fill="black" stroke="black" points="1227.59,-575.6 1218.45,-580.96 1228.94,-582.47 1227.59,-575.6"/>
</g>
<!-- chemical_pollution&#45;&gt;fashion_industry_footprint -->
<g id="edge64" class="edge">
<title>chemical_pollution&#45;&gt;fashion_industry_footprint</title>
<path fill="none" stroke="black" d="M1175.22,-324.28C1168.79,-334.24 1161.46,-347.27 1157.52,-360 1135.56,-430.9 1134.76,-519.36 1136.1,-564.14"/>
<polygon fill="black" stroke="black" points="1132.6,-564.19 1136.47,-574.05 1139.6,-563.93 1132.6,-564.19"/>
</g>
<!-- greenhouse_gases_emission&#45;&gt;fashion_industry_footprint -->
<g id="edge65" class="edge">
<title>greenhouse_gases_emission&#45;&gt;fashion_industry_footprint</title>
<path fill="none" stroke="black" d="M1023.37,-322.67C1042.48,-330.97 1062.93,-343.05 1076.52,-360 1101.93,-391.69 1123.91,-509.5 1133.03,-564.45"/>
<polygon fill="black" stroke="black" points="1129.56,-564.97 1134.63,-574.28 1136.47,-563.84 1129.56,-564.97"/>
</g>
<!-- energy_consumption&#45;&gt;fashion_industry_footprint -->
<g id="edge66" class="edge">
<title>energy_consumption&#45;&gt;fashion_industry_footprint</title>
<path fill="none" stroke="black" d="M1383.93,-324.25C1392.7,-342.82 1402.87,-372.83 1391.52,-396 1348.93,-482.93 1247.44,-542.5 1186.42,-571.88"/>
<polygon fill="black" stroke="black" points="1185.17,-568.6 1177.62,-576.03 1188.16,-574.93 1185.17,-568.6"/>
</g>
<!-- textile_waste&#45;&gt;fashion_industry_footprint -->
<g id="edge67" class="edge">
<title>textile_waste&#45;&gt;fashion_industry_footprint</title>
<path fill="none" stroke="black" d="M1246.25,-650.15C1227.08,-640.43 1201.7,-627.55 1180.28,-616.69"/>
<polygon fill="black" stroke="black" points="1181.98,-613.63 1171.47,-612.22 1178.81,-619.87 1181.98,-613.63"/>
</g>
<!-- fashion_industry_footprint&#45;&gt;consumers_awareness -->
<g id="edge42" class="edge">
<title>fashion_industry_footprint&#45;&gt;consumers_awareness</title>
<path fill="none" stroke="red" d="M1092.82,-577.12C1063.57,-566.72 1025.2,-553.09 994.29,-542.1"/>
<polygon fill="red" stroke="red" points="995.71,-538.9 985.12,-538.85 993.37,-545.49 995.71,-538.9"/>
<text text-anchor="middle" x="1022.4" y="-560.14" font-family="Times New Roman,serif" font-size="14.00">Delay</text>
</g>
<!-- innovations_for_transition -->
<g id="node29" class="node">
<title>innovations_for_transition</title>
<ellipse fill="none" stroke="black" cx="1274.52" cy="-378" rx="107.95" ry="18"/>
<text text-anchor="middle" x="1274.52" y="-372.57" font-family="Times New Roman,serif" font-size="14.00">innovations_for_transition</text>
</g>
<!-- innovations_for_transition&#45;&gt;landfills_exploitation -->
<g id="edge55" class="edge">
<title>innovations_for_transition&#45;&gt;landfills_exploitation</title>
<path fill="none" stroke="black" stroke-dasharray="5,2" d="M1186.43,-367.35C1100.35,-357.6 965.69,-341.52 849.52,-324 842.6,-322.96 835.41,-321.81 828.22,-320.61"/>
<polygon fill="black" stroke="black" points="828.9,-317.18 818.45,-318.96 827.73,-324.08 828.9,-317.18"/>
</g>
<!-- innovations_for_transition&#45;&gt;natural_resources_exploitation -->
<g id="edge56" class="edge">
<title>innovations_for_transition&#45;&gt;natural_resources_exploitation</title>
<path fill="none" stroke="black" stroke-dasharray="5,2" d="M1339.32,-363.25C1392.64,-351.94 1468.43,-335.87 1525.34,-323.8"/>
<polygon fill="black" stroke="black" points="1525.92,-327.25 1534.98,-321.75 1524.47,-320.4 1525.92,-327.25"/>
</g>
<!-- innovations_for_transition&#45;&gt;chemical_pollution -->
<g id="edge57" class="edge">
<title>innovations_for_transition&#45;&gt;chemical_pollution</title>
<path fill="none" stroke="black" stroke-dasharray="5,2" d="M1253.46,-360.05C1242.56,-351.28 1229.07,-340.43 1217.14,-330.83"/>
<polygon fill="black" stroke="black" points="1219.55,-328.28 1209.56,-324.74 1215.16,-333.73 1219.55,-328.28"/>
</g>
<!-- innovations_for_transition&#45;&gt;greenhouse_gases_emission -->
<g id="edge58" class="edge">
<title>innovations_for_transition&#45;&gt;greenhouse_gases_emission</title>
<path fill="none" stroke="black" stroke-dasharray="5,2" d="M1213.24,-362.75C1165.12,-351.56 1097.95,-335.94 1046.95,-324.08"/>
<polygon fill="black" stroke="black" points="1048.01,-320.73 1037.47,-321.87 1046.42,-327.55 1048.01,-320.73"/>
</g>
<!-- innovations_for_transition&#45;&gt;energy_consumption -->
<g id="edge59" class="edge">
<title>innovations_for_transition&#45;&gt;energy_consumption</title>
<path fill="none" stroke="black" stroke-dasharray="5,2" d="M1298.73,-360.05C1311.5,-351.11 1327.37,-340.01 1341.28,-330.27"/>
<polygon fill="black" stroke="black" points="1343.11,-333.26 1349.29,-324.66 1339.09,-327.52 1343.11,-333.26"/>
</g>
<!-- innovations_for_transition&#45;&gt;textile_waste -->
<g id="edge60" class="edge">
<title>innovations_for_transition&#45;&gt;textile_waste</title>
<path fill="none" stroke="black" stroke-dasharray="5,2" d="M1274.58,-396.23C1274.75,-443.74 1275.21,-576.97 1275.42,-636.1"/>
<polygon fill="black" stroke="black" points="1271.92,-636.04 1275.45,-646.03 1278.92,-636.01 1271.92,-636.04"/>
</g>
<!-- fashion_industry_sustainability -->
<g id="node31" class="node">
<title>fashion_industry_sustainability</title>
<ellipse fill="none" stroke="black" cx="1871.52" cy="-306" rx="124.92" ry="18"/>
<text text-anchor="middle" x="1871.52" y="-300.57" font-family="Times New Roman,serif" font-size="14.00">fashion_industry_sustainability</text>
</g>
<!-- innovations_for_transition&#45;&gt;fashion_industry_sustainability -->
<g id="edge54" class="edge">
<title>innovations_for_transition&#45;&gt;fashion_industry_sustainability</title>
<path fill="none" stroke="black" d="M1362.46,-367.26C1455.62,-356.86 1606.99,-339.75 1737.52,-324 1747.89,-322.75 1758.7,-321.42 1769.5,-320.07"/>
<polygon fill="black" stroke="black" points="1769.73,-323.57 1779.21,-318.86 1768.86,-316.63 1769.73,-323.57"/>
</g>
<!-- industry_investments_in_sustainability&#45;&gt;production_intensity -->
<g id="edge44" class="edge">
<title>industry_investments_in_sustainability&#45;&gt;production_intensity</title>
<path fill="none" stroke="black" stroke-dasharray="5,2" d="M702.29,-431.7C701.35,-424.32 700.21,-415.52 699.15,-407.25"/>
<polygon fill="black" stroke="black" points="702.66,-407.08 697.91,-397.61 695.71,-407.97 702.66,-407.08"/>
</g>
<!-- industry_investments_in_sustainability&#45;&gt;innovations_for_transition -->
<g id="edge43" class="edge">
<title>industry_investments_in_sustainability&#45;&gt;innovations_for_transition</title>
<path fill="none" stroke="black" d="M807.74,-436.32C913.19,-423.37 1075.61,-403.43 1178.4,-390.8"/>
<polygon fill="black" stroke="black" points="1178.7,-394.29 1188.2,-389.6 1177.85,-387.35 1178.7,-394.29"/>
</g>
<!-- fashion_industry_sustainability&#45;&gt;investments_in_marketing -->
<g id="edge5" class="edge">
<title>fashion_industry_sustainability&#45;&gt;investments_in_marketing</title>
<path fill="none" stroke="black" d="M1781.09,-293.27C1766.53,-291.45 1751.61,-289.64 1737.52,-288 1283.82,-235.25 1168.65,-237.41 715.52,-180 706.86,-178.9 697.85,-177.69 688.84,-176.44"/>
<polygon fill="black" stroke="black" points="689.36,-172.97 678.97,-175.04 688.38,-179.91 689.36,-172.97"/>
</g>
<!-- fashion_industry_sustainability&#45;&gt;fashion_industry_footprint -->
<g id="edge68" class="edge">
<title>fashion_industry_sustainability&#45;&gt;fashion_industry_footprint</title>
<path fill="none" stroke="black" stroke-dasharray="5,2" d="M1845.43,-324.09C1778.27,-367.26 1592.77,-481.44 1422.52,-540 1363.08,-560.44 1293.8,-573.55 1238.43,-581.62"/>
<polygon fill="black" stroke="black" points="1238.1,-578.13 1228.69,-583.01 1239.09,-585.06 1238.1,-578.13"/>
</g>
</g>
</svg>
