<?xml version="1.0" encoding="UTF-8" standalone="no"?>
<!DOCTYPE svg PUBLIC "-//W3C//DTD SVG 1.1//EN"
 "http://www.w3.org/Graphics/SVG/1.1/DTD/svg11.dtd">
<!-- Generated by graphviz version 11.0.0 (20240428.1522)
 -->
<!-- Pages: 1 -->
<svg width="1445pt" height="404pt"
 viewBox="0.00 0.00 1445.23 404.00" xmlns="http://www.w3.org/2000/svg" xmlns:xlink="http://www.w3.org/1999/xlink">
<g id="graph0" class="graph" transform="scale(1 1) rotate(0) translate(4 400)">
<polygon fill="white" stroke="none" points="-4,4 -4,-400 1441.23,-400 1441.23,4 -4,4"/>
<!-- economic_growth -->
<g id="node1" class="node">
<title>economic_growth</title>
<ellipse fill="none" stroke="black" cx="302.92" cy="-234" rx="78.01" ry="18"/>
<text text-anchor="middle" x="302.92" y="-228.57" font-family="Times New Roman,serif" font-size="14.00">economic_growth</text>
</g>
<!-- unemployment -->
<g id="node2" class="node">
<title>unemployment</title>
<ellipse fill="none" stroke="black" cx="355.92" cy="-162" rx="65.04" ry="18"/>
<text text-anchor="middle" x="355.92" y="-156.57" font-family="Times New Roman,serif" font-size="14.00">unemployment</text>
</g>
<!-- economic_growth&#45;&gt;unemployment -->
<g id="edge1" class="edge">
<title>economic_growth&#45;&gt;unemployment</title>
<path fill="none" stroke="black" stroke-dasharray="5,2" d="M315.75,-216.05C321.93,-207.89 329.48,-197.91 336.36,-188.82"/>
<polygon fill="black" stroke="black" points="339.04,-191.08 342.29,-181 333.46,-186.86 339.04,-191.08"/>
</g>
<!-- business_restrictions -->
<g id="node3" class="node">
<title>business_restrictions</title>
<ellipse fill="none" stroke="black" cx="355.92" cy="-90" rx="88.49" ry="18"/>
<text text-anchor="middle" x="355.92" y="-84.58" font-family="Times New Roman,serif" font-size="14.00">business_restrictions</text>
</g>
<!-- unemployment&#45;&gt;business_restrictions -->
<g id="edge2" class="edge">
<title>unemployment&#45;&gt;business_restrictions</title>
<path fill="none" stroke="black" d="M355.92,-143.7C355.92,-136.41 355.92,-127.73 355.92,-119.54"/>
<polygon fill="black" stroke="black" points="359.42,-119.62 355.92,-109.62 352.42,-119.62 359.42,-119.62"/>
</g>
<!-- business_restrictions&#45;&gt;economic_growth -->
<g id="edge3" class="edge">
<title>business_restrictions&#45;&gt;economic_growth</title>
<path fill="none" stroke="black" stroke-dasharray="5,2" d="M320.86,-106.81C306,-115.5 290.22,-127.84 281.92,-144 272.02,-163.27 278.64,-187.28 286.98,-205.51"/>
<polygon fill="black" stroke="black" points="283.83,-207.03 291.44,-214.4 290.08,-203.89 283.83,-207.03"/>
</g>
<!-- interventions -->
<g id="node4" class="node">
<title>interventions</title>
<ellipse fill="none" stroke="black" cx="539.92" cy="-378" rx="57.55" ry="18"/>
<text text-anchor="middle" x="539.92" y="-372.57" font-family="Times New Roman,serif" font-size="14.00">interventions</text>
</g>
<!-- interventions&#45;&gt;business_restrictions -->
<g id="edge7" class="edge">
<title>interventions&#45;&gt;business_restrictions</title>
<path fill="none" stroke="black" d="M524.06,-360.38C515.19,-350.42 504.44,-337.17 496.92,-324 454.58,-249.88 481.77,-211.81 429.92,-144 420.83,-132.11 408.34,-121.77 396.21,-113.45"/>
<polygon fill="black" stroke="black" points="398.19,-110.57 387.9,-108.05 394.37,-116.44 398.19,-110.57"/>
</g>
<!-- social_restrictions -->
<g id="node5" class="node">
<title>social_restrictions</title>
<ellipse fill="none" stroke="black" cx="592.92" cy="-306" rx="78.01" ry="18"/>
<text text-anchor="middle" x="592.92" y="-300.57" font-family="Times New Roman,serif" font-size="14.00">social_restrictions</text>
</g>
<!-- interventions&#45;&gt;social_restrictions -->
<g id="edge9" class="edge">
<title>interventions&#45;&gt;social_restrictions</title>
<path fill="none" stroke="black" d="M552.75,-360.05C558.93,-351.89 566.48,-341.91 573.36,-332.82"/>
<polygon fill="black" stroke="black" points="576.04,-335.08 579.29,-325 570.46,-330.86 576.04,-335.08"/>
</g>
<!-- government_stimulus_package -->
<g id="node6" class="node">
<title>government_stimulus_package</title>
<ellipse fill="none" stroke="black" cx="124.92" cy="-306" rx="124.92" ry="18"/>
<text text-anchor="middle" x="124.92" y="-300.57" font-family="Times New Roman,serif" font-size="14.00">government_stimulus_package</text>
</g>
<!-- interventions&#45;&gt;government_stimulus_package -->
<g id="edge8" class="edge">
<title>interventions&#45;&gt;government_stimulus_package</title>
<path fill="none" stroke="black" d="M490.27,-368.63C422.42,-357.18 299.56,-336.46 215.18,-322.23"/>
<polygon fill="black" stroke="black" points="216,-318.81 205.55,-320.6 214.83,-325.72 216,-318.81"/>
</g>
<!-- confirmed_cases -->
<g id="node9" class="node">
<title>confirmed_cases</title>
<ellipse fill="none" stroke="black" cx="900.92" cy="-306" rx="74.02" ry="18"/>
<text text-anchor="middle" x="900.92" y="-300.57" font-family="Times New Roman,serif" font-size="14.00">confirmed_cases</text>
</g>
<!-- interventions&#45;&gt;confirmed_cases -->
<g id="edge14" class="edge">
<title>interventions&#45;&gt;confirmed_cases</title>
<path fill="none" stroke="red" stroke-dasharray="5,2" d="M587.85,-367.7C650.84,-355.49 761.84,-333.97 833.33,-320.1"/>
<polygon fill="red" stroke="red" points="833.82,-323.58 842.97,-318.24 832.49,-316.7 833.82,-323.58"/>
<text text-anchor="middle" x="700.54" y="-345.25" font-family="Times New Roman,serif" font-size="14.00">Delay</text>
</g>
<!-- travel_restrictions -->
<g id="node16" class="node">
<title>travel_restrictions</title>
<ellipse fill="none" stroke="black" cx="343.92" cy="-306" rx="76.51" ry="18"/>
<text text-anchor="middle" x="343.92" y="-300.57" font-family="Times New Roman,serif" font-size="14.00">travel_restrictions</text>
</g>
<!-- interventions&#45;&gt;travel_restrictions -->
<g id="edge6" class="edge">
<title>interventions&#45;&gt;travel_restrictions</title>
<path fill="none" stroke="black" d="M503.05,-363.83C472.63,-352.97 429.13,-337.43 395.29,-325.35"/>
<polygon fill="black" stroke="black" points="396.7,-322.13 386.1,-322.07 394.34,-328.73 396.7,-322.13"/>
</g>
<!-- social_interactions -->
<g id="node17" class="node">
<title>social_interactions</title>
<ellipse fill="none" stroke="black" cx="590.92" cy="-234" rx="79.51" ry="18"/>
<text text-anchor="middle" x="590.92" y="-228.57" font-family="Times New Roman,serif" font-size="14.00">social_interactions</text>
</g>
<!-- interventions&#45;&gt;social_interactions -->
<g id="edge10" class="edge">
<title>interventions&#45;&gt;social_interactions</title>
<path fill="none" stroke="black" stroke-dasharray="5,2" d="M525.06,-360.3C510.62,-341.94 492.67,-311.86 505.92,-288 513.66,-274.05 526.76,-263.29 540.4,-255.23"/>
<polygon fill="black" stroke="black" points="541.9,-258.4 549.02,-250.55 538.56,-252.25 541.9,-258.4"/>
</g>
<!-- social_restrictions&#45;&gt;social_interactions -->
<g id="edge11" class="edge">
<title>social_restrictions&#45;&gt;social_interactions</title>
<path fill="none" stroke="black" stroke-dasharray="5,2" d="M592.42,-287.7C592.21,-280.41 591.96,-271.73 591.73,-263.54"/>
<polygon fill="black" stroke="black" points="595.23,-263.51 591.45,-253.62 588.23,-263.71 595.23,-263.51"/>
</g>
<!-- government_stimulus_package&#45;&gt;economic_growth -->
<g id="edge5" class="edge">
<title>government_stimulus_package&#45;&gt;economic_growth</title>
<path fill="none" stroke="red" d="M166.65,-288.59C192.77,-278.31 226.56,-265.03 253.95,-254.26"/>
<polygon fill="red" stroke="red" points="255.05,-257.58 263.08,-250.67 252.49,-251.07 255.05,-257.58"/>
<text text-anchor="middle" x="200.11" y="-271.69" font-family="Times New Roman,serif" font-size="14.00">Delay</text>
</g>
<!-- speed_of_government_action -->
<g id="node7" class="node">
<title>speed_of_government_action</title>
<ellipse fill="none" stroke="black" cx="847.92" cy="-234" rx="121.42" ry="18"/>
<text text-anchor="middle" x="847.92" y="-228.57" font-family="Times New Roman,serif" font-size="14.00">speed_of_government_action</text>
</g>
<!-- speed_of_government_action&#45;&gt;interventions -->
<g id="edge12" class="edge">
<title>speed_of_government_action&#45;&gt;interventions</title>
<path fill="none" stroke="black" d="M826.15,-252.2C800.39,-271.86 755.58,-303.91 712.92,-324 675.6,-341.57 631.06,-355.06 596.52,-364.03"/>
<polygon fill="black" stroke="black" points="595.97,-360.56 587.14,-366.41 597.69,-367.34 595.97,-360.56"/>
</g>
<!-- ICU_admission -->
<g id="node8" class="node">
<title>ICU_admission</title>
<ellipse fill="none" stroke="black" cx="996.92" cy="-18" rx="69.03" ry="18"/>
<text text-anchor="middle" x="996.92" y="-12.57" font-family="Times New Roman,serif" font-size="14.00">ICU_admission</text>
</g>
<!-- ICU_admission&#45;&gt;interventions -->
<g id="edge13" class="edge">
<title>ICU_admission&#45;&gt;interventions</title>
<path fill="none" stroke="black" d="M929.29,-22.24C841.37,-30.51 698.92,-59.56 698.92,-161 698.92,-235 698.92,-235 698.92,-235 698.92,-275.45 706.27,-293.32 679.92,-324 660.49,-346.61 630.37,-359.6 603.04,-367.05"/>
<polygon fill="black" stroke="black" points="602.25,-363.64 593.4,-369.46 603.95,-370.43 602.25,-363.64"/>
</g>
<!-- confirmed_cases&#45;&gt;speed_of_government_action -->
<g id="edge15" class="edge">
<title>confirmed_cases&#45;&gt;speed_of_government_action</title>
<path fill="none" stroke="red" d="M888.09,-288.05C881.99,-280.01 874.57,-270.2 867.77,-261.23"/>
<polygon fill="red" stroke="red" points="870.74,-259.34 861.91,-253.48 865.15,-263.57 870.74,-259.34"/>
<text text-anchor="middle" x="858.85" y="-272.69" font-family="Times New Roman,serif" font-size="14.00">Delay</text>
</g>
<!-- confirmed_cases&#45;&gt;ICU_admission -->
<g id="edge16" class="edge">
<title>confirmed_cases&#45;&gt;ICU_admission</title>
<path fill="none" stroke="black" d="M935.56,-289.85C951.21,-281.13 968.32,-268.57 977.92,-252 1015.61,-186.86 1008.67,-93.84 1001.97,-47.51"/>
<polygon fill="black" stroke="black" points="1005.45,-47.09 1000.45,-37.75 998.54,-48.17 1005.45,-47.09"/>
</g>
<!-- health_worker_load -->
<g id="node12" class="node">
<title>health_worker_load</title>
<ellipse fill="none" stroke="black" cx="1129.92" cy="-234" rx="84" ry="18"/>
<text text-anchor="middle" x="1129.92" y="-228.57" font-family="Times New Roman,serif" font-size="14.00">health_worker_load</text>
</g>
<!-- confirmed_cases&#45;&gt;health_worker_load -->
<g id="edge17" class="edge">
<title>confirmed_cases&#45;&gt;health_worker_load</title>
<path fill="none" stroke="black" d="M945.89,-291.25C982,-280.21 1032.97,-264.63 1072.12,-252.67"/>
<polygon fill="black" stroke="black" points="1073.09,-256.03 1081.63,-249.76 1071.05,-249.33 1073.09,-256.03"/>
</g>
<!-- mental_wellbeing -->
<g id="node10" class="node">
<title>mental_wellbeing</title>
<ellipse fill="none" stroke="black" cx="593.92" cy="-90" rx="74.02" ry="18"/>
<text text-anchor="middle" x="593.92" y="-84.58" font-family="Times New Roman,serif" font-size="14.00">mental_wellbeing</text>
</g>
<!-- one_health -->
<g id="node11" class="node">
<title>one_health</title>
<ellipse fill="none" stroke="black" cx="726.92" cy="-18" rx="50.56" ry="18"/>
<text text-anchor="middle" x="726.92" y="-12.57" font-family="Times New Roman,serif" font-size="14.00">one_health</text>
</g>
<!-- mental_wellbeing&#45;&gt;one_health -->
<g id="edge24" class="edge">
<title>mental_wellbeing&#45;&gt;one_health</title>
<path fill="none" stroke="black" d="M624.1,-73.12C643.5,-62.9 668.86,-49.55 689.54,-38.67"/>
<polygon fill="black" stroke="black" points="691.01,-41.85 698.23,-34.1 687.75,-35.66 691.01,-41.85"/>
</g>
<!-- health_service_capacity -->
<g id="node13" class="node">
<title>health_service_capacity</title>
<ellipse fill="none" stroke="black" cx="1129.92" cy="-162" rx="98.97" ry="18"/>
<text text-anchor="middle" x="1129.92" y="-156.57" font-family="Times New Roman,serif" font-size="14.00">health_service_capacity</text>
</g>
<!-- health_worker_load&#45;&gt;health_service_capacity -->
<g id="edge18" class="edge">
<title>health_worker_load&#45;&gt;health_service_capacity</title>
<path fill="none" stroke="black" stroke-dasharray="5,2" d="M1124,-215.7C1123.25,-208.41 1123,-199.73 1123.27,-191.54"/>
<polygon fill="black" stroke="black" points="1126.76,-191.82 1123.92,-181.61 1119.77,-191.36 1126.76,-191.82"/>
</g>
<!-- health_service_capacity&#45;&gt;health_worker_load -->
<g id="edge19" class="edge">
<title>health_service_capacity&#45;&gt;health_worker_load</title>
<path fill="none" stroke="black" stroke-dasharray="5,2" d="M1135.81,-180.1C1136.57,-187.37 1136.82,-196.04 1136.57,-204.24"/>
<polygon fill="black" stroke="black" points="1133.08,-203.98 1135.93,-214.19 1140.06,-204.43 1133.08,-203.98"/>
</g>
<!-- access_to_health_service -->
<g id="node14" class="node">
<title>access_to_health_service</title>
<ellipse fill="none" stroke="black" cx="1129.92" cy="-90" rx="105.45" ry="18"/>
<text text-anchor="middle" x="1129.92" y="-84.58" font-family="Times New Roman,serif" font-size="14.00">access_to_health_service</text>
</g>
<!-- health_service_capacity&#45;&gt;access_to_health_service -->
<g id="edge22" class="edge">
<title>health_service_capacity&#45;&gt;access_to_health_service</title>
<path fill="none" stroke="black" d="M1129.92,-143.7C1129.92,-136.41 1129.92,-127.73 1129.92,-119.54"/>
<polygon fill="black" stroke="black" points="1133.42,-119.62 1129.92,-109.62 1126.42,-119.62 1133.42,-119.62"/>
</g>
<!-- access_to_health_service&#45;&gt;ICU_admission -->
<g id="edge26" class="edge">
<title>access_to_health_service&#45;&gt;ICU_admission</title>
<path fill="none" stroke="black" stroke-dasharray="5,2" d="M1098.4,-72.41C1079.82,-62.63 1056.15,-50.18 1036.34,-39.75"/>
<polygon fill="black" stroke="black" points="1038.2,-36.78 1027.73,-35.22 1034.94,-42.97 1038.2,-36.78"/>
</g>
<!-- access_to_health_service&#45;&gt;one_health -->
<g id="edge23" class="edge">
<title>access_to_health_service&#45;&gt;one_health</title>
<path fill="none" stroke="black" d="M1057.87,-76.49C979.1,-62.8 854.58,-41.18 782.85,-28.72"/>
<polygon fill="black" stroke="black" points="783.75,-25.32 773.29,-27.06 782.55,-32.22 783.75,-25.32"/>
</g>
<!-- prevention_practices_for_many_pathologies -->
<g id="node15" class="node">
<title>prevention_practices_for_many_pathologies</title>
<ellipse fill="none" stroke="black" cx="1260.92" cy="-18" rx="176.31" ry="18"/>
<text text-anchor="middle" x="1260.92" y="-12.57" font-family="Times New Roman,serif" font-size="14.00">prevention_practices_for_many_pathologies</text>
</g>
<!-- access_to_health_service&#45;&gt;prevention_practices_for_many_pathologies -->
<g id="edge21" class="edge">
<title>access_to_health_service&#45;&gt;prevention_practices_for_many_pathologies</title>
<path fill="none" stroke="red" d="M1160.96,-72.41C1178.32,-63.13 1200.21,-51.44 1219.06,-41.36"/>
<polygon fill="red" stroke="red" points="1220.68,-44.47 1227.85,-36.67 1217.38,-38.3 1220.68,-44.47"/>
<text text-anchor="middle" x="1179.34" y="-56.62" font-family="Times New Roman,serif" font-size="14.00">Delay</text>
</g>
<!-- prevention_practices_for_many_pathologies&#45;&gt;health_worker_load -->
<g id="edge20" class="edge">
<title>prevention_practices_for_many_pathologies&#45;&gt;health_worker_load</title>
<path fill="none" stroke="red" stroke-dasharray="5,2" d="M1263.35,-36.43C1266.81,-68.22 1269.61,-136.37 1237.92,-180 1226.47,-195.75 1209.05,-207.06 1191.51,-215.07"/>
<polygon fill="red" stroke="red" points="1190.46,-211.71 1182.61,-218.82 1193.19,-218.16 1190.46,-211.71"/>
<text text-anchor="middle" x="1241.82" y="-124.19" font-family="Times New Roman,serif" font-size="14.00">Delay</text>
</g>
<!-- travel_restrictions&#45;&gt;economic_growth -->
<g id="edge4" class="edge">
<title>travel_restrictions&#45;&gt;economic_growth</title>
<path fill="none" stroke="black" stroke-dasharray="5,2" d="M333.78,-287.7C329.21,-279.9 323.71,-270.51 318.63,-261.83"/>
<polygon fill="black" stroke="black" points="321.77,-260.27 313.7,-253.41 315.73,-263.81 321.77,-260.27"/>
</g>
<!-- social_interactions&#45;&gt;mental_wellbeing -->
<g id="edge25" class="edge">
<title>social_interactions&#45;&gt;mental_wellbeing</title>
<path fill="none" stroke="black" d="M591.28,-215.59C591.79,-191.61 592.71,-148.14 593.31,-119.42"/>
<polygon fill="black" stroke="black" points="596.81,-119.7 593.52,-109.62 589.81,-119.55 596.81,-119.7"/>
</g>
<!-- new_dangerous_variant -->
<g id="node18" class="node">
<title>new_dangerous_variant</title>
<ellipse fill="none" stroke="black" cx="900.92" cy="-378" rx="98.47" ry="18"/>
<text text-anchor="middle" x="900.92" y="-372.57" font-family="Times New Roman,serif" font-size="14.00">new_dangerous_variant</text>
</g>
<!-- new_dangerous_variant&#45;&gt;confirmed_cases -->
<g id="edge27" class="edge">
<title>new_dangerous_variant&#45;&gt;confirmed_cases</title>
<path fill="none" stroke="black" d="M900.92,-359.7C900.92,-352.41 900.92,-343.73 900.92,-335.54"/>
<polygon fill="black" stroke="black" points="904.42,-335.62 900.92,-325.62 897.42,-335.62 904.42,-335.62"/>
</g>
</g>
</svg>
